<?xml version="1.0" encoding="UTF-8" standalone="no"?>
<svg
   viewBox="0 0 256.5 54.01"
   version="1.1"
   id="svg11"
   sodipodi:docname="sap-signavio-logo-colored.svg"
   inkscape:version="1.2.2 (b0a8486, 2022-12-01)"
   xmlns:inkscape="http://www.inkscape.org/namespaces/inkscape"
   xmlns:sodipodi="http://sodipodi.sourceforge.net/DTD/sodipodi-0.dtd"
   xmlns="http://www.w3.org/2000/svg"
   xmlns:svg="http://www.w3.org/2000/svg">
  <sodipodi:namedview
     id="namedview13"
     pagecolor="#ffffff"
     bordercolor="#000000"
     borderopacity="0.25"
     inkscape:showpageshadow="2"
     inkscape:pageopacity="0.0"
     inkscape:pagecheckerboard="0"
     inkscape:deskcolor="#d1d1d1"
     showgrid="false"
     inkscape:zoom="4.8576998"
     inkscape:cx="128.25"
     inkscape:cy="10.601726"
     inkscape:window-width="1390"
     inkscape:window-height="805"
     inkscape:window-x="0"
     inkscape:window-y="25"
     inkscape:window-maximized="0"
     inkscape:current-layer="svg11" />
  <defs
     id="defs4"><rect
   x="0.4117175"
   y="10.498796"
   width="208.94663"
   height="34.378411"
   id="rect283" />
<style
   id="style2">.cls-1{fill:#f0ab00;}.cls-2{fill:#0076cb;}</style>
</defs>
  <g
     id="Layer_2"
     data-name="Layer 2"><g
   id="Logo"
   transform="translate(-0.61757624,-6.7933387)">
  <path
     id="gazelle"
     class="cls-1"
     d="m 256.36,25.77 a 1.31,1.31 0 0 0 -1,-0.63 c -0.24,0 -2.19,-0.13 -4,-0.16 -0.39,0 -1.44,0 -2,0 a 0.43,0.43 0 0 1 -0.23,0 0.35,0.35 0 0 1 -0.16,-0.19 17.86,17.86 0 0 0 -1,-2.59 c -0.42,-0.76 -0.93,-1.46 -1.31,-2.19 a 9.06,9.06 0 0 1 -0.72,-1.51 c 0,-0.22 1.64,0.53 1.78,0.6 a 3.32,3.32 0 0 0 0.8,0.21 c 0.22,0 0.39,0 0.83,-0.39 a 1.44,1.44 0 0 0 0.51,-1.34 3.42,3.42 0 0 0 -0.64,-1.19 5.36,5.36 0 0 1 -0.73,-1.23 18.14,18.14 0 0 0 -1.13,-2.95 4.82,4.82 0 0 0 -2,-1.66 11,11 0 0 0 -1.69,-0.72 c -1,-4.08 -2.34,-5.81 -5.88,-6.81 -3.24,-0.91 -5,-1.43 -6.37,-2.75 C 231.24,0 231,0 230.87,0 c -0.13,0 -0.18,0.34 -0.06,0.56 0.84,1.63 3.05,3 6.08,4.07 2.26,0.82 3.51,2.11 3.8,4.07 a 5,5 0 0 1 -1.52,-0.4 c -0.24,-0.05 -0.35,-0.06 -0.44,0 a 0.3,0.3 0 0 0 -0.07,0.33 8.4,8.4 0 0 0 0.69,2.06 c 0.45,0.83 0.58,1.05 0.73,1.28 a 34.77,34.77 0 0 0 -0.37,5 51.27,51.27 0 0 1 -0.19,5.85 c 0,0 -0.33,0.32 -1.12,1 a 88.21,88.21 0 0 1 -7.18,5.18 49.28,49.28 0 0 1 -10.43,4.85 c -1.51,0.41 -1.75,0.43 -1.81,0.67 -0.06,0.24 0.08,0.26 0.33,0.36 0.25,0.1 2.3,0.84 2.29,1.2 0,0.94 -0.87,1.92 -1.38,3.46 a 4.67,4.67 0 0 1 -2.1,2.23 c -0.46,0.29 -0.92,0.54 -1.29,0.75 a 2.79,2.79 0 0 0 -0.86,0.61 7.92,7.92 0 0 1 -1.3,2.07 c -0.87,0.85 -1.72,1.84 -2.36,2.51 -0.64,0.67 -1.54,2.55 -2.1,3.08 a 2.55,2.55 0 0 1 -0.89,0.56 c -0.22,0.08 -0.74,0.16 -0.84,0.47 a 2.76,2.76 0 0 0 -0.21,1.65 0.67,0.67 0 0 0 0.73,0.53 0.82,0.82 0 0 0 0.47,-0.17 11.91,11.91 0 0 0 2.08,-1.83 c 2.07,-2.33 4.26,-5.54 6,-6.77 1.74,-1.23 6.9,-3.11 9.17,-4.59 a 24.38,24.38 0 0 0 3.39,-2.92 c 0.5,-0.5 0.94,-1 1.27,-1.3 l 0.41,-0.39 0.1,-0.09 a 44.45,44.45 0 0 0 10.6,-2 10.83,10.83 0 0 0 4.51,-3.05 c 0.73,-0.84 1.67,-2.29 1.83,-2.35 a 6,6 0 0 1 0.67,-0.16 14.58,14.58 0 0 1 2.83,-0.21 h 0.28 c 0,0 -1,1.48 -1.4,2 a 5.79,5.79 0 0 1 -1.44,1.31 3.72,3.72 0 0 0 -1.22,1 3.1,3.1 0 0 1 -1.55,1.42 c -1.32,0.61 -1.56,1 -1.5,1.42 0.06,0.42 0.41,1.37 0.81,1.4 a 2.52,2.52 0 0 0 1.13,-0.46 51.25,51.25 0 0 0 5.61,-5 34.22,34.22 0 0 0 3.33,-4.44 1.33,1.33 0 0 0 -0.02,-1.05 z" />
  <path
     class="cls-2"
     d="m 0,33.6 4,-2.35 a 7.07,7.07 0 0 0 6.45,4.07 c 2.42,0 4.17,-0.91 4.17,-2.75 C 14.62,30.73 12.89,30 9.75,29.11 5.49,27.92 1,26.82 1,21.81 1,17.35 4.49,14.67 9.63,14.67 a 10.75,10.75 0 0 1 9.5,4.91 L 15.5,22.36 A 7.12,7.12 0 0 0 9.63,19 c -2.23,0 -3.46,1 -3.46,2.39 0,1.91 1.78,2.58 4.91,3.46 4.2,1.13 8.65,2.45 8.65,7.39 0,3.85 -2.9,7.27 -9.55,7.27 C 5,39.48 1.78,37 0,33.6 Z M 20.7,39 29.16,15 h 5 l 8.46,24 H 37.31 L 35.52,33.7 H 27.39 L 25.54,39 Z m 8,-9.14 h 5.6 L 31.55,21.72 H 31.49 Z M 45.28,39 V 15.13 H 54 c 5.1,0 9.76,1.35 9.76,7.65 0,6.3 -5,7.75 -9.83,7.75 H 50.52 V 39 Z m 5.24,-12.57 h 3.58 c 3.26,0 4.49,-1.25 4.49,-3.55 0,-2.3 -1.19,-3.49 -4.49,-3.49 H 50.52 Z M 0,33.6 4,31.25 a 7.07,7.07 0 0 0 6.45,4.07 c 2.42,0 4.17,-0.91 4.17,-2.75 C 14.62,30.73 12.89,30 9.75,29.11 5.49,27.92 1,26.82 1,21.81 1,17.35 4.49,14.67 9.63,14.67 a 10.75,10.75 0 0 1 9.5,4.91 L 15.5,22.36 A 7.12,7.12 0 0 0 9.63,19 c -2.23,0 -3.46,1 -3.46,2.39 0,1.91 1.78,2.58 4.91,3.46 4.2,1.13 8.65,2.45 8.65,7.39 0,3.85 -2.9,7.27 -9.55,7.27 C 5,39.48 1.78,37 0,33.6 Z M 20.7,39 29.16,15 h 5 l 8.46,24 H 37.31 L 35.52,33.7 H 27.39 L 25.54,39 Z m 8,-9.14 h 5.6 L 31.55,21.72 H 31.49 Z M 45.28,39 V 15.13 H 54 c 5.1,0 9.76,1.35 9.76,7.65 0,6.3 -5,7.75 -9.83,7.75 H 50.52 V 39 Z m 5.24,-12.57 h 3.58 c 3.26,0 4.49,-1.25 4.49,-3.55 0,-2.3 -1.19,-3.49 -4.49,-3.49 H 50.52 Z M 73,33.6 77,31.24 a 7.09,7.09 0 0 0 6.46,4.08 c 2.42,0 4.16,-0.91 4.16,-2.75 0,-1.84 -1.75,-2.57 -4.88,-3.46 C 78.47,27.92 74,26.82 74,21.81 c 0,-4.46 3.49,-7.14 8.62,-7.14 a 10.75,10.75 0 0 1 9.5,4.91 l -3.65,2.78 A 7.13,7.13 0 0 0 82.61,19 c -2.23,0 -3.46,1 -3.46,2.39 0,1.91 1.78,2.58 4.91,3.46 4.2,1.13 8.66,2.45 8.66,7.39 0,3.85 -2.91,7.27 -9.56,7.27 C 78,39.48 74.76,37 73,33.6 Z M 96.31,15.29 h 5.23 v 4.16 h -5.23 z m 0,6.52 h 5.17 V 39 h -5.14 z m 7.17,19.8 c 0,-1.68 1.39,-2.81 3,-3.45 a 2.37,2.37 0 0 1 -1.16,-2.07 c 0,-1.42 1.13,-2.65 2.49,-3.52 A 5.52,5.52 0 0 1 105,27.63 c 0,-3.46 2.77,-6.17 7.75,-6.17 a 8.44,8.44 0 0 1 5.78,1.87 8.32,8.32 0 0 1 4.43,-1.78 v 4 a 11.76,11.76 0 0 0 -2.91,0.38 4.51,4.51 0 0 1 0.32,1.72 c 0,3.49 -2.68,6.13 -7.62,6.13 a 12.42,12.42 0 0 1 -2.65,-0.29 c -0.36,0.29 -0.58,0.55 -0.58,0.88 0,0.64 0.68,0.77 1.94,0.84 l 2.58,0.16 c 5.91,0.22 8.3,1.65 8.3,4.88 0,3.55 -4.16,5.26 -9.88,5.26 -6.75,-0.02 -8.95,-1.51 -8.95,-3.9 z m 14.25,-0.51 c 0,-1.07 -0.52,-1.55 -4.59,-1.75 l -2.71,-0.13 -1.13,-0.09 a 1.86,1.86 0 0 0 -1,1.55 c 0,1.48 1.39,2.19 4.91,2.19 2.71,0 4.55,-0.64 4.55,-1.77 z m -2,-13.28 a 2.94,2.94 0 1 0 -5.88,0 2.94,2.94 0 1 0 5.88,0 z m 9.82,-6 h 5.21 v 2.72 a 7.35,7.35 0 0 1 5.94,-3.07 c 2.91,0 5,1.45 5,5 V 39 h -5.17 V 28.11 c 0,-1.55 -0.58,-2.36 -2,-2.36 a 5.75,5.75 0 0 0 -3.74,1.72 V 39 h -5.21 z m 18.81,12.83 c 0,-4 3.36,-6.17 10.92,-6.79 v -0.42 c 0,-1.26 -0.65,-2.06 -2.33,-2.06 a 9.13,9.13 0 0 0 -5.65,2.13 l -2.2,-3 a 12,12 0 0 1 8.59,-3.07 c 4.72,0 6.66,2.32 6.66,6.75 v 6.62 a 11.89,11.89 0 0 0 0.48,4.2 h -5.17 a 8.46,8.46 0 0 1 -0.38,-2.52 7.62,7.62 0 0 1 -6,2.78 4.59,4.59 0 0 1 -4.93,-4.63 z m 10.92,-0.75 v -3.2 c -4.11,0.42 -5.85,1.45 -5.85,3 0,1.1 0.77,1.65 1.9,1.65 a 5.33,5.33 0 0 0 3.94,-1.46 z m 6.49,-12.08 h 5.36 l 3.62,11.47 h 0.06 l 3.62,-11.47 h 4.88 l -6.14,17.25 h -5.23 z m 19.64,-6.52 h 5.24 v 4.16 h -5.25 z m 0,6.52 h 5.17 V 39 h -5.17 z m 8.37,8.63 c 0,-6.75 4.62,-9 8.82,-9 4.2,0 8.79,2.23 8.79,9 0,6.77 -4.62,9 -8.79,9 -4.17,0 -8.8,-2.33 -8.8,-9.01 z m 12.41,0 c 0,-2.87 -1,-5.2 -3.59,-5.2 -2.59,0 -3.62,2.1 -3.62,5.2 0,2.87 1,5.27 3.62,5.27 2.48,0.02 3.61,-2.12 3.61,-5.25 z"
     id="path7" />
</g>
</g>
  <text
     xml:space="preserve"
     style="font-size:13.3333px;fill:#deaa87"
     x="62.169342"
     y="51.258827"
     id="text227"><tspan
       sodipodi:role="line"
       id="tspan225"
       x="62.169342"
       y="51.258827"
       style="font-style:normal;font-variant:normal;font-weight:bold;font-stretch:normal;font-size:13.3333px;font-family:sans-serif;-inkscape-font-specification:'sans-serif Bold';fill:#deaa87">LLM-SandBox</tspan><tspan
       sodipodi:role="line"
       id="tspan229"
       x="62.169342"
       y="67.925491"
       style="font-style:normal;font-variant:normal;font-weight:bold;font-stretch:normal;font-size:13.3333px;font-family:sans-serif;-inkscape-font-specification:'sans-serif Bold';fill:#deaa87" /></text>
  <text
     xml:space="preserve"
     id="text281"
     style="fill:#000080;-inkscape-font-specification:'sans-serif Bold';font-family:sans-serif;font-weight:bold;font-style:normal;font-stretch:normal;font-variant:normal;font-size:13.33333333px;white-space:pre;shape-inside:url(#rect283)" />
  <text
     xml:space="preserve"
     style="font-size:13.3333px;fill:#008080"
     x="61.551765"
     y="51.670547"
     id="text363"><tspan
       sodipodi:role="line"
       id="tspan359"
       x="61.551765"
       y="51.670547"
       style="font-style:normal;font-variant:normal;font-weight:bold;font-stretch:normal;font-size:13.3333px;font-family:sans-serif;-inkscape-font-specification:'sans-serif Bold';fill:#008080">LLM-SandBox</tspan><tspan
       sodipodi:role="line"
       id="tspan361"
       x="61.551765"
       y="68.337173"
       style="font-style:normal;font-variant:normal;font-weight:bold;font-stretch:normal;font-size:13.3333px;font-family:sans-serif;-inkscape-font-specification:'sans-serif Bold';fill:#008080" /></text>
</svg>
